<svg xmlns="http://www.w3.org/2000/svg" viewBox="0 0 24 24" shape-rendering="crispEdges" preserveAspectRatio="xMidYMid meet">
  <rect width="24" height="24" fill="#0d1f0d"/>
  <!-- Vault hood (dim green) -->
  <rect x="9" y="2" width="6" height="1" fill="#4a9c63"/>
  <rect x="8" y="3" width="8" height="1" fill="#4a9c63"/>
  <rect x="7" y="4" width="10" height="1" fill="#4a9c63"/>
  <rect x="7" y="5" width="2" height="3" fill="#4a9c63"/>
  <rect x="15" y="5" width="2" height="3" fill="#4a9c63"/>
  <!-- Face (bright) -->
  <rect x="9" y="5" width="6" height="1" fill="#7cffa0"/>
  <rect x="8" y="6" width="8" height="1" fill="#7cffa0"/>
  <rect x="8" y="7" width="8" height="1" fill="#7cffa0"/>
  <rect x="8" y="8" width="8" height="1" fill="#7cffa0"/>
  <rect x="8" y="9" width="8" height="1" fill="#7cffa0"/>
  <rect x="9" y="10" width="6" height="1" fill="#7cffa0"/>
  <rect x="9" y="11" width="6" height="1" fill="#7cffa0"/>
  <!-- Eyes (with glasses hint) -->
  <rect x="10" y="8" width="1" height="1" fill="#0d1f0d"/>
  <rect x="13" y="8" width="1" height="1" fill="#0d1f0d"/>
  <rect x="9" y="8" width="1" height="1" fill="#4a9c63"/>
  <rect x="11" y="8" width="1" height="1" fill="#4a9c63"/>
  <rect x="14" y="8" width="1" height="1" fill="#4a9c63"/>
  <rect x="12" y="8" width="1" height="1" fill="#4a9c63"/>
  <!-- Mouth -->
  <rect x="11" y="10" width="2" height="1" fill="#0d1f0d"/>
  <!-- Neck -->
  <rect x="11" y="12" width="2" height="1" fill="#7cffa0"/>
  <!-- Vault jumpsuit -->
  <rect x="6" y="13" width="12" height="1" fill="#4a9c63"/>
  <rect x="5" y="14" width="14" height="1" fill="#4a9c63"/>
  <rect x="4" y="15" width="16" height="9" fill="#4a9c63"/>
  <!-- Yellow trim down center (vault stripe) -->
  <rect x="11" y="13" width="2" height="1" fill="#7cffa0"/>
  <rect x="11" y="14" width="2" height="1" fill="#7cffa0"/>
  <!-- "75" patch (yellow) -->
  <rect x="10" y="17" width="4" height="3" fill="#ffe45e"/>
  <rect x="11" y="18" width="1" height="1" fill="#0d1f0d"/>
  <rect x="12" y="18" width="1" height="1" fill="#0d1f0d"/>
</svg>
